<svg width="60" height="60" viewBox="0 0 60 60" fill="none" xmlns="http://www.w3.org/2000/svg">
<path fill-rule="evenodd" clip-rule="evenodd" d="M29.784 3.79245C28.5345 3.84613 27.3504 4.36618 26.4654 5.25L21.7154 10H15.0004L14.6254 10.015C13.368 10.1096 12.1927 10.6758 11.335 11.6002C10.4773 12.5246 10.0006 13.739 10.0004 15V21.715L5.25041 26.465L4.96041 26.7825C4.15504 27.7402 3.73803 28.965 3.79172 30.2152C3.84541 31.4653 4.3659 32.6499 5.25041 33.535L10.0004 38.285V45L10.0129 45.375C10.1075 46.6329 10.6741 47.8085 11.599 48.6663C12.524 49.524 13.739 50.0004 15.0004 50H21.7179L26.4679 54.75L26.7854 55.04C27.7431 55.8454 28.9679 56.2624 30.2181 56.2087C31.4682 56.155 32.6528 55.6345 33.5379 54.75L38.2879 50H45.0004L45.3729 49.9875C46.6308 49.8929 47.8064 49.3263 48.6642 48.4014C49.5219 47.4764 49.9983 46.2614 49.9979 45V38.285L54.7479 33.535L55.0404 33.2175C55.8458 32.2598 56.2628 31.035 56.2091 29.7848C56.1554 28.5347 55.6349 27.3501 54.7504 26.465L50.0004 21.715V15L49.9854 14.625C49.8908 13.3675 49.3246 12.1923 48.4002 11.3346C47.4758 10.4769 46.2614 10.0002 45.0004 10H38.2854L33.5354 5.2525L33.2154 4.96C32.2579 4.15534 31.0336 3.73876 29.784 3.79245ZM25.1429 38.195L18.0704 31.0898C17.6772 30.6949 17.6828 30.0548 18.0827 29.6667L18.4309 29.3287C18.8206 28.9506 19.4408 28.9525 19.8282 29.333L26.3843 35.7741C26.7744 36.1574 27.4002 36.1562 27.7888 35.7714L40.466 23.2172C40.8684 22.8187 41.5211 22.8336 41.9049 23.25L42.2803 23.6572C42.6446 24.0523 42.6313 24.6648 42.2504 25.0438L29.0329 38.195C28.7775 38.4505 28.4743 38.6532 28.1406 38.7915C27.8069 38.9297 27.4492 39.0009 27.0879 39.0009C26.7267 39.0009 26.369 38.9297 26.0352 38.7915C25.7015 38.6532 25.3983 38.4505 25.1429 38.195Z" fill="#9BD27D"/>
</svg>
