<svg width="61" height="60" viewBox="0 0 61 60" fill="none" xmlns="http://www.w3.org/2000/svg">
<path d="M55 48.7204C55 48.628 54.9854 48.5403 54.9731 48.451V27.7326V27.7257C54.9731 27.4694 54.9226 27.2155 54.8244 26.9787C54.7263 26.7419 54.5825 26.5267 54.4012 26.3455C54.2199 26.1643 54.0047 26.0206 53.7679 25.9225C53.531 25.8245 53.2771 25.7741 53.0208 25.7742C52.9846 25.7742 52.9515 25.7827 52.9162 25.785H53.4644V25.7988C52.9596 25.8128 52.48 26.0222 52.1267 26.383C51.7734 26.7438 51.574 27.2277 51.5706 27.7326H51.5644L47.3233 48.8958H47.3564C47.4003 49.366 47.6141 49.8041 47.9577 50.1281C48.3013 50.452 48.7513 50.6396 49.2233 50.6557V50.6726H53.0485C54.1258 50.6726 55 49.7985 55 48.7204ZM7.30316 45.5484L7.33548 45.5846L7.29931 45.5484H7.30316Z" fill="#9BD27D"/>
<path fill-rule="evenodd" clip-rule="evenodd" d="M43.9604 51.9777L50.3221 23.8958L50.3229 23.8889C50.3229 23.6326 50.2724 23.3787 50.1743 23.1419C50.0761 22.9051 49.9323 22.6899 49.751 22.5087C49.5697 22.3275 49.3545 22.1838 49.1176 22.0857C48.8808 21.9877 48.627 21.9373 48.3706 21.9374C48.3352 21.9374 48.3014 21.9459 48.266 21.9482L33.7599 21.9382C33.6461 21.7562 33.5073 21.5911 33.3474 21.448L25.7446 8.27775L25.7253 8.28929C24.9635 6.94033 23.5338 6.03 21.8932 6.03C19.453 6.03 17.4746 8.03689 17.4746 10.5124H17.43V21.9374L8.99975 21.9379C6.79071 21.9381 5 23.7289 5 25.9379V45.5484H5.00462C5.00462 45.797 5.10004 46.0455 5.2878 46.2364L5.28549 46.2387L12.799 53.7522L12.8175 53.7338C13.0337 53.9115 13.2992 53.9785 13.5616 53.9431L41.845 53.9531C41.9012 53.9577 41.9551 53.97 42.012 53.97C42.5112 53.9692 42.991 53.7768 43.3523 53.4323C43.7136 53.0879 43.9289 52.6179 43.9535 52.1193H43.9597V52.0593C43.9597 52.0455 43.9635 52.0324 43.9635 52.0185C43.9635 52.0047 43.9612 51.9916 43.9604 51.9777ZM7.33548 45.5846L7.30316 45.5484H7.29931L7.33548 45.5846Z" fill="#9BD27D"/>
</svg>
