<svg width="60" height="60" viewBox="0 0 60 60" fill="none" xmlns="http://www.w3.org/2000/svg">
<path d="M12.3569 0.0807546C10.8639 0.432503 9.64454 1.94111 9.63672 3.44973V3.82492H50.2051V3.44973C50.1973 2.01146 49.1108 0.604469 47.649 0.151104C47.1488 -0.00522842 46.9534 -0.00522842 29.8896 0.00258822C20.2205 0.0104049 12.5211 0.0416714 12.3569 0.0807546Z" fill="#9BD27D"/>
<path d="M9.63672 43.7922H50.3614V5.56972H9.63672V43.7922ZM30.3899 9.73431C31.3201 10.3987 32.0158 11.2664 32.3831 12.2278C32.6489 12.9079 32.6567 14.1742 32.3988 15.0027C32.1408 15.8235 31.664 16.7302 31.1168 17.465C30.5071 18.2701 30.2101 18.8798 30.1319 19.4582C30.0694 19.8959 30.1163 20.5682 30.2336 20.9356C30.257 21.0294 30.257 21.0997 30.2179 21.0997C30.0694 21.0997 29.2487 20.748 28.6077 20.4118C27.3727 19.7631 26.5441 18.9501 26.2002 18.0512C25.9813 17.465 26.0126 16.4175 26.2862 15.7844C26.5519 15.1591 27.0913 14.3696 27.6853 13.7286C29.2721 12.009 29.9131 10.344 29.3737 9.3044L29.2487 9.05427L29.5848 9.22623C29.7724 9.32003 30.1319 9.54672 30.3899 9.73431ZM33.6416 14.651C34.0794 15.5577 34.2044 16.144 34.1653 17.0351C34.1341 17.6448 34.0872 17.8558 33.9074 18.2076C33.5556 18.9032 33.2821 19.1846 32.2424 19.9428C31.6953 20.3337 31.1716 20.7245 31.0699 20.8183C30.8433 21.0215 30.7729 20.9277 30.7026 20.3571C30.6088 19.5989 30.8745 18.8954 31.664 17.848C32.3128 16.9803 32.4926 16.6442 32.8131 15.6906C33.0085 15.1043 33.0945 14.6901 33.1101 14.307C33.1257 13.6505 33.1726 13.6739 33.6416 14.651ZM38.3941 33.5907C38.7381 33.7627 38.9491 34.1691 38.9491 34.6381C38.9491 35.0993 38.8553 35.3573 38.5896 35.5996L38.3785 35.795H29.5379C22.6436 35.7872 20.666 35.7715 20.5722 35.6934C19.9234 35.2009 19.9703 33.9659 20.666 33.5907C20.9161 33.4578 21.346 33.45 29.5301 33.45C37.5656 33.45 38.144 33.4578 38.3941 33.5907Z" fill="#9BD27D"/>
<path d="M9.71566 49.8493C9.71566 54.422 9.72348 54.5549 10.1612 55.3522C10.427 55.8369 11.0914 56.5013 11.5838 56.767C12.4437 57.2438 11.2712 57.2126 30.0389 57.2126C44.1167 57.2126 47.2668 57.1891 47.5873 57.1031C48.8223 56.7748 49.7681 55.8759 50.1433 54.6878C50.284 54.2344 50.2918 53.9609 50.2997 50.0994C50.2997 47.8404 50.2918 45.9175 50.2918 45.8159L50.284 45.644H9.71566V49.8493ZM31.4694 48.2C32.8373 48.8488 33.6111 50.1385 33.5408 51.6628C33.5173 52.2412 33.4704 52.421 33.2203 52.9447C32.423 54.6175 30.5861 55.3913 28.8273 54.7894C28.2802 54.6018 27.8112 54.2735 27.3578 53.7733C25.6616 51.8894 26.498 48.8566 28.929 48.0593C29.2729 47.942 29.5543 47.9186 30.1562 47.9342C30.844 47.9499 31.0004 47.9811 31.4694 48.2Z" fill="#9BD27D"/>
<path d="M20.5787 58.174C20.5787 58.7681 21.0633 59.4716 21.6964 59.8077C22.1498 60.05 22.9862 60.05 23.4317 59.8155C24.0258 59.5029 24.5573 58.7446 24.5651 58.2053V57.9942H20.5787V58.174Z" fill="#9BD27D"/>
<path d="M35.4304 58.0959C35.4304 58.1584 35.4773 58.3694 35.5398 58.5727C35.9463 59.9093 37.5018 60.433 38.643 59.5967C39.0495 59.2996 39.4169 58.6665 39.4169 58.2522V57.9943H37.4236C35.8056 57.9943 35.4304 58.0177 35.4304 58.0959Z" fill="#9BD27D"/>
</svg>
