<svg width="60" height="60" viewBox="0 0 60 60" fill="none" xmlns="http://www.w3.org/2000/svg">
<path d="M1.625 46.75V30.875H6.125V46.75H1.625Z" fill="#231F1E"/>
<path d="M12.625 30.875L8.25 38.75L12.625 46.75H17.5L12.625 38.75L17.5 30.875H12.625Z" fill="#231F1E"/>
<path d="M42.5 46.75V30.875H47V46.75H42.5Z" fill="#231F1E"/>
<path d="M53.5 30.875L49.125 38.75L53.5 46.75H58.375L53.5 38.75L58.375 30.875H53.5Z" fill="#231F1E"/>
<path d="M29.5 42.75L21 31H25.125L29.5 37.125L34.125 31H38.375L29.5 42.75Z" fill="#231F1E"/>
<path d="M20.75 46.875V38L27.875 46.875H20.75Z" fill="#71BF46"/>
<path d="M38.375 46.875V38L31.25 46.875H38.375Z" fill="#71BF46"/>
<path d="M4.5 27.375L1.375 24.25L28.875 0L56.25 24.25L53.375 27.375L28.875 5.875L4.5 27.375Z" fill="#231F1E"/>
<path d="M16.5 6.375L9.625 12.5V2.375H16.5V6.375Z" fill="#231F1E"/>
<path d="M10.75 49.75H18.5V51.625H12.625V53.75H17.625V55.625H12.625V58H18.5V59.875H10.75V49.75Z" fill="#231F1E"/>
<path d="M40.75 59.75V49.75H42.75V56L46.625 49.75H48.75V59.75H46.625V53.5L42.75 59.75H40.75Z" fill="#231F1E"/>
<path fill-rule="evenodd" clip-rule="evenodd" d="M30.125 49.75H36.1006C37.4948 49.75 38.625 50.8802 38.625 52.2744V52.8705C38.625 53.8591 37.861 54.6796 36.875 54.75C37.8791 54.8934 38.625 55.7534 38.625 56.7678V57.2643C38.625 58.7061 37.4561 59.875 36.0143 59.875H30.125V49.75ZM32.125 58V55.625H35.1875C35.8433 55.625 36.375 56.1567 36.375 56.8125C36.375 57.4683 35.8433 58 35.1875 58H32.125ZM32.125 51.625V53.75H35.3125C35.8993 53.75 36.375 53.2743 36.375 52.6875C36.375 52.1007 35.8993 51.625 35.3125 51.625H32.125Z" fill="#231F1E"/>
<path fill-rule="evenodd" clip-rule="evenodd" d="M24.4375 49.75H20.5V59.875H22.375V56.875H24.4375C26.405 56.875 28 55.33 28 53.3625C28 51.395 26.405 49.75 24.4375 49.75ZM22.375 51.625V55H24.5625C25.4945 55 26.25 54.2445 26.25 53.3125C26.25 52.3805 25.4945 51.625 24.5625 51.625H22.375Z" fill="#231F1E"/>
<path d="M58.75 53H56.875V52.825C56.875 52.1623 56.3377 51.625 55.675 51.625H54.075C53.4123 51.625 52.875 52.1623 52.875 52.825V56.8C52.875 57.4627 53.4123 58 54.075 58H55.675C56.3377 58 56.875 57.4627 56.875 56.8V56.375H58.75V56.875C58.75 58.5319 57.4069 59.875 55.75 59.875H54C52.3431 59.875 51 58.5319 51 56.875V52.75C51 51.0931 52.3431 49.75 54 49.75H55.75C57.4069 49.75 58.75 51.0931 58.75 52.75V53Z" fill="#231F1E"/>
<path d="M8.75 53H6.875V52.825C6.875 52.1623 6.33774 51.625 5.675 51.625H4.075C3.41226 51.625 2.875 52.1623 2.875 52.825V56.8C2.875 57.4627 3.41226 58 4.075 58H5.675C6.33774 58 6.875 57.4627 6.875 56.8V56.375H8.75V56.875C8.75 58.5319 7.40686 59.875 5.75 59.875H4C2.34315 59.875 1 58.5319 1 56.875V52.75C1 51.0931 2.34315 49.75 4 49.75H5.75C7.40686 49.75 8.75 51.0931 8.75 52.75V53Z" fill="#231F1E"/>
</svg>
