<svg width="60" height="60" fill="none" xmlns="http://www.w3.org/2000/svg"><path d="M1.625 46.75V30.875h4.5V46.75h-4.5ZM12.625 30.875 8.25 38.75l4.375 8H17.5l-4.875-8 4.875-7.875h-4.875ZM42.5 46.75V30.875H47V46.75h-4.5ZM53.5 30.875l-4.375 7.875 4.375 8h4.875l-4.875-8 4.875-7.875H53.5ZM29.5 42.75 21 31h4.125l4.375 6.125L34.125 31h4.25L29.5 42.75Z" fill="#231F1E"/><path d="M20.75 46.875V38l7.125 8.875H20.75ZM38.375 46.875V38l-7.125 8.875h7.125Z" fill="#71BF46"/><path d="M4.5 27.375 1.375 24.25 28.875 0 56.25 24.25l-2.875 3.125-24.5-21.5L4.5 27.375ZM16.5 6.375 9.625 12.5V2.375H16.5v4ZM10.75 49.75h7.75v1.875h-5.875v2.125h5v1.875h-5V58H18.5v1.875h-7.75V49.75ZM40.75 59.75v-10h2V56l3.875-6.25h2.125v10h-2.125V53.5l-3.875 6.25h-2Z" fill="#231F1E"/><path fill-rule="evenodd" clip-rule="evenodd" d="M30.125 49.75h5.976a2.524 2.524 0 0 1 2.524 2.524v.596c0 .99-.764 1.81-1.75 1.88a2.038 2.038 0 0 1 1.75 2.018v.496a2.61 2.61 0 0 1-2.61 2.611h-5.89V49.75Zm2 8.25v-2.375h3.063a1.188 1.188 0 0 1 0 2.375h-3.063Zm0-6.375v2.125h3.188a1.063 1.063 0 0 0 0-2.125h-3.188ZM24.438 49.75H20.5v10.125h1.875v-3h2.063c1.967 0 3.562-1.545 3.562-3.513 0-1.967-1.595-3.612-3.563-3.612Zm-2.063 1.875V55h2.188a1.687 1.687 0 1 0 0-3.375h-2.188Z" fill="#231F1E"/><path d="M58.75 53h-1.875v-.175a1.2 1.2 0 0 0-1.2-1.2h-1.6a1.2 1.2 0 0 0-1.2 1.2V56.8a1.2 1.2 0 0 0 1.2 1.2h1.6a1.2 1.2 0 0 0 1.2-1.2v-.425h1.875v.5a3 3 0 0 1-3 3H54a3 3 0 0 1-3-3V52.75a3 3 0 0 1 3-3h1.75a3 3 0 0 1 3 3V53ZM8.75 53H6.875v-.175a1.2 1.2 0 0 0-1.2-1.2h-1.6a1.2 1.2 0 0 0-1.2 1.2V56.8a1.2 1.2 0 0 0 1.2 1.2h1.6a1.2 1.2 0 0 0 1.2-1.2v-.425H8.75v.5a3 3 0 0 1-3 3H4a3 3 0 0 1-3-3V52.75a3 3 0 0 1 3-3h1.75a3 3 0 0 1 3 3V53Z" fill="#231F1E"/></svg>