<?xml version="1.0" encoding="utf-8"?><svg viewBox="0 0 61 60" xmlns="http://www.w3.org/2000/svg" xmlns:xlink="http://www.w3.org/1999/xlink"><style>:root>svg{display:none}:root>svg:target{display:block}</style><svg fill="none" viewBox="0 0 20 11" id="icon-accordion-arrow" xmlns="http://www.w3.org/2000/svg"><path d="m1 .5 9 9 9-9" stroke="#71BF46"/></svg><svg fill="none" viewBox="0 0 17 17" id="icon-btn-arrow" xmlns="http://www.w3.org/2000/svg"><path d="M1 16 16 1m0 0H7m9 0v9" stroke="currentColor"/></svg><svg fill="none" viewBox="0 0 31 20" id="icon-btn-slider-next" xmlns="http://www.w3.org/2000/svg"><path d="M0 10h30m0 0-9-9m9 9-9 9" stroke="currentColor"/></svg><svg fill="none" viewBox="0 0 31 20" id="icon-btn-slider-prev" xmlns="http://www.w3.org/2000/svg"><path d="M31 10H1m0 0 9-9m-9 9 9 9" stroke="currentColor"/></svg><svg fill="none" viewBox="0 0 22 22" id="icon-cross" xmlns="http://www.w3.org/2000/svg"><path d="m1 1 20 20M1 21 21 1" stroke="currentColor"/></svg><svg fill="none" viewBox="0 0 20 20" id="icon-dot-green" xmlns="http://www.w3.org/2000/svg"><circle cx="5" cy="5" r="5" fill="#71BF46"/></svg><svg fill="none" viewBox="0 0 20 20" id="icon-dot-white" xmlns="http://www.w3.org/2000/svg"><circle cx="5" cy="5" r="5" fill="#fff"/></svg><svg fill="none" viewBox="0 0 30 36" id="icon-play" xmlns="http://www.w3.org/2000/svg"><path d="M30 18 0 35.32V.68L30 18Z" fill="currentColor"/></svg><svg fill="none" viewBox="0 0 16 22" id="icon-up" xmlns="http://www.w3.org/2000/svg"><path d="M9.031.585a1.444 1.444 0 0 0-.477-.303 1.358 1.358 0 0 0-1.097 0c-.178.069-.34.172-.477.303L1.202 6.363a1.45 1.45 0 0 0 2.051 2.051l3.308-3.322v15.297a1.444 1.444 0 1 0 2.889 0V5.092l3.308 3.322a1.45 1.45 0 0 0 2.05-2.051L9.032.585Z" fill="currentColor"/></svg><svg fill="none" viewBox="0 0 60 60" id="img-about-boilers" xmlns="http://www.w3.org/2000/svg"><path d="M12.357.08c-1.493.353-2.712 1.861-2.72 3.37v.375h40.568V3.45C50.197 2.01 49.111.604 47.65.15c-.5-.156-.696-.156-17.76-.148-9.668.008-17.368.04-17.532.078Zm-2.72 43.712H50.36V5.57H9.637v38.222ZM30.39 9.734c.93.665 1.626 1.532 1.993 2.494.266.68.274 1.946.016 2.775-.258.82-.735 1.727-1.282 2.462-.61.805-.907 1.415-.985 1.993-.063.438-.016 1.11.102 1.478.023.093.023.164-.016.164-.149 0-.97-.352-1.61-.688-1.235-.649-2.064-1.462-2.408-2.36-.219-.587-.187-1.634.086-2.268.266-.625.805-1.414 1.4-2.055 1.586-1.72 2.227-3.385 1.688-4.425l-.125-.25.336.172c.187.094.547.32.805.508Zm3.252 4.917c.437.907.562 1.493.523 2.384-.03.61-.078.82-.258 1.173-.351.695-.625.977-1.665 1.735-.547.39-1.07.781-1.172.875-.227.203-.297.11-.367-.46-.094-.76.172-1.463.961-2.51.649-.868.829-1.204 1.15-2.157.194-.587.28-1 .296-1.384.016-.657.063-.633.532.344Zm4.752 18.94c.344.172.555.578.555 1.047 0 .461-.094.72-.36.962l-.21.195h-8.841c-6.894-.008-8.872-.023-8.966-.102-.649-.492-.602-1.727.094-2.102.25-.133.68-.141 8.864-.141 8.036 0 8.614.008 8.864.14ZM9.716 49.85c0 4.572.007 4.705.445 5.502.266.485.93 1.15 1.423 1.415.86.477-.313.446 18.455.446 14.078 0 17.228-.024 17.548-.11 1.235-.328 2.181-1.227 2.556-2.415.141-.454.149-.727.157-4.589 0-2.259-.008-4.181-.008-4.283l-.008-.172H9.716v4.205Zm21.753-1.65c1.368.649 2.142 1.938 2.072 3.463-.024.578-.07.758-.32 1.282-.798 1.672-2.635 2.446-4.394 1.844-.547-.187-1.016-.516-1.47-1.016-1.695-1.884-.859-4.916 1.572-5.714.344-.117.625-.14 1.227-.125.688.016.844.047 1.313.266Zm-10.89 9.974c0 .594.484 1.298 1.117 1.634.454.242 1.29.242 1.736.008.594-.313 1.125-1.071 1.133-1.61v-.212H20.58v.18Zm14.851-.078c0 .062.047.273.11.477a1.982 1.982 0 0 0 3.103 1.024c.407-.297.774-.93.774-1.345v-.258h-1.993c-1.618 0-1.994.024-1.994.102Z" fill="#9BD27D"/></svg><svg fill="none" viewBox="0 0 61 60" id="img-about-buyers" xmlns="http://www.w3.org/2000/svg"><path d="M55 48.72c0-.092-.015-.18-.027-.269V27.726a1.95 1.95 0 0 0-1.952-1.952c-.036 0-.07.009-.105.011h.548v.014a1.948 1.948 0 0 0-1.893 1.934h-.007l-4.24 21.163h.032a1.942 1.942 0 0 0 1.867 1.76v.017h3.825A1.952 1.952 0 0 0 55 48.72ZM7.303 45.548l.032.037-.036-.037h.004Z" fill="#9BD27D"/><path fill-rule="evenodd" clip-rule="evenodd" d="m43.96 51.978 6.362-28.082v-.007a1.952 1.952 0 0 0-1.951-1.952c-.036 0-.07.009-.105.011l-14.506-.01a2.28 2.28 0 0 0-.413-.49l-7.602-13.17-.02.011c-.762-1.349-2.191-2.259-3.832-2.259-2.44 0-4.418 2.007-4.418 4.482h-.045v11.425H9a4 4 0 0 0-4 4v19.611h.005a.98.98 0 0 0 .283.688l-.003.003 7.514 7.513.019-.018a.956.956 0 0 0 .744.21l28.283.01c.056.004.11.016.167.016a1.947 1.947 0 0 0 1.941-1.85h.007v-.06c0-.015.004-.028.004-.041 0-.014-.003-.027-.004-.041ZM7.335 45.585l-.032-.037H7.3l.036.037Z" fill="#9BD27D"/></svg><svg fill="none" viewBox="0 0 60 60" id="img-about-years" xmlns="http://www.w3.org/2000/svg"><path fill-rule="evenodd" clip-rule="evenodd" d="M29.784 3.792a5 5 0 0 0-3.319 1.458L21.715 10H15l-.375.015A5 5 0 0 0 10 15v6.715l-4.75 4.75-.29.317a5 5 0 0 0 .29 6.753l4.75 4.75V45l.013.375A5 5 0 0 0 15 50h6.718l4.75 4.75.317.29a5 5 0 0 0 6.753-.29l4.75-4.75H45l.373-.013A5 5 0 0 0 49.998 45v-6.715l4.75-4.75.292-.317a5 5 0 0 0-.29-6.753L50 21.715V15l-.015-.375A5 5 0 0 0 45 10h-6.715l-4.75-4.747-.32-.293a5 5 0 0 0-3.431-1.168Zm-4.641 34.403L18.07 31.09a1 1 0 0 1 .013-1.423l.348-.338a1 1 0 0 1 1.397.004l6.556 6.441a1 1 0 0 0 1.405-.003l12.677-12.554a1 1 0 0 1 1.439.033l.375.407a1 1 0 0 1-.03 1.387L29.033 38.195a2.75 2.75 0 0 1-3.89 0Z" fill="#9BD27D"/></svg></svg>